<svg width="68.642578" height="42.136719" viewBox="0 0 68.6426 42.1367" fill="none" xmlns="http://www.w3.org/2000/svg" xmlns:xlink="http://www.w3.org/1999/xlink">
	<desc>
			Created with Pixso.
	</desc>
	<defs/>
	<path id="Vector" d="M47.98 0.34C47.78 0.52 47.63 0.81 47.63 0.98C47.63 1.13 47.98 2.55 48.41 4.11C48.84 5.67 49.15 6.97 49.13 6.98C49.03 7.07 29.41 10.95 29.37 10.89C29.3 10.83 28.21 8 28.21 7.89C28.21 7.83 28.63 7.72 29.13 7.64C30.23 7.44 31.13 7.1 32.1 6.5C33.11 5.87 34.29 5.54 35.51 5.54L36.54 5.54L36.54 4.42L36.54 3.28L35.12 3.35C33.47 3.43 32.37 3.75 30.99 4.57C28.63 5.96 26.27 5.87 23.92 4.29C23.35 3.92 22.83 3.6 22.78 3.6C22.68 3.6 21.56 5.18 21.56 5.32C21.56 5.6 24.46 7.23 25.25 7.4C25.68 7.5 25.72 7.58 26.52 9.72L27.35 11.93L26.79 12.46C25.15 13.96 20.92 17.65 20.78 17.7C20.7 17.73 20.28 17.56 19.88 17.32C18.91 16.75 17.4 16.15 16.21 15.85C14.87 15.53 11.57 15.51 10.27 15.85C7.73 16.48 5.72 17.62 3.86 19.46C2.02 21.32 0.88 23.35 0.24 25.87C-0.09 27.19 -0.09 30.49 0.24 31.81C0.87 34.29 2.02 36.34 3.81 38.14C6.22 40.6 9.11 41.92 12.49 42.11C19.2 42.5 25.21 37.73 26.31 31.1L26.5 30.02L27.7 29.98C28.66 29.95 28.91 29.98 28.91 30.13C28.91 30.59 29.92 32.31 30.52 32.85C31.1 33.39 32.64 34.25 33.04 34.25C33.17 34.25 33.21 34.58 33.21 35.43L33.21 36.6L30.99 36.6L28.77 36.6L28.77 37.71L28.77 38.82L31.75 38.82C34.75 38.82 34.75 38.82 35.08 38.48C35.41 38.16 35.43 38.07 35.43 36.19C35.43 34.64 35.47 34.25 35.62 34.25C35.72 34.25 36.24 34.03 36.77 33.76C37.96 33.17 38.77 32.33 39.35 31.09C39.75 30.24 39.79 30.03 39.79 28.84C39.79 27.65 39.75 27.42 39.36 26.62C38.84 25.51 38.25 24.83 37.35 24.23L36.66 23.79L37.33 23.14C39.57 20.91 50.21 11.12 50.29 11.2C50.35 11.26 50.44 11.5 50.49 11.75C50.57 12.2 50.57 12.2 50 12.2C49.57 12.2 49.33 12.28 49.08 12.54C48.66 12.96 48.66 13.06 49.1 15.14C49.46 16.79 49.46 16.84 49.21 17.01C49.06 17.12 48.47 17.51 47.89 17.88C44.15 20.32 41.85 25.04 42.12 29.67C42.33 32.99 43.66 35.87 46.09 38.27C47.89 40.06 49.94 41.21 52.43 41.83C53.74 42.16 57.04 42.16 58.36 41.83C60.93 41.19 62.85 40.1 64.75 38.2C66.65 36.3 67.75 34.37 68.39 31.81C68.72 30.49 68.72 27.19 68.39 25.87C67.39 21.91 64.8 18.65 61.22 16.91C59.82 16.25 59 15.98 57.21 15.68L55.88 15.46L55.59 14.08C55.21 12.38 55.05 12.2 53.79 12.2L52.91 12.2L52.75 11.6C52.66 11.28 52.07 9.09 51.43 6.75C50.79 4.4 50.26 2.42 50.26 2.35C50.26 2.27 51.57 2.21 53.59 2.21L56.93 2.21L57.27 2.56C57.72 3 57.72 3.64 57.27 4.09C56.95 4.42 56.86 4.43 55.05 4.43L53.18 4.43L53.18 5.54L53.18 6.65L55.06 6.65C57.42 6.65 57.89 6.53 58.79 5.61C59.78 4.64 60.05 3.6 59.67 2.3C59.44 1.53 58.29 0.38 57.53 0.16C57.13 0.05 55.62 0 52.63 0L48.31 0L47.98 0.34ZM48.74 9.36C48.74 9.38 45.42 12.52 41.37 16.3C36.06 21.25 33.97 23.14 33.9 23C33.71 22.65 30.16 13.13 30.2 13.09C30.23 13.06 34.39 12.2 39.46 11.19C44.52 10.16 48.68 9.31 48.71 9.3C48.72 9.3 48.74 9.31 48.74 9.36ZM28.6 15.25L28.88 16.03L21.96 21.88L15.04 27.74L13.97 27.7L12.92 27.66L20.52 20.96C24.69 17.27 28.16 14.31 28.21 14.38C28.27 14.43 28.45 14.83 28.6 15.25ZM54.76 20.81C55.51 24.32 56.16 27.31 56.18 27.47C56.25 27.72 56.17 27.73 55.16 27.73L54.06 27.73L52.69 21.31C51.94 17.79 51.29 14.79 51.26 14.65C51.21 14.44 51.32 14.42 52.29 14.42L53.38 14.42L54.76 20.81ZM14.99 17.9C16.09 18.09 17.77 18.65 18.41 19.03L18.95 19.37L18.08 20.13L17.22 20.91L16.65 20.66C13.39 19.27 9.55 20.03 7 22.6C3.53 26.07 3.5 31.6 6.93 35.01C10.2 38.27 14.92 38.62 18.6 35.87C20.17 34.7 21.48 32.67 21.85 30.81L22.03 29.95L23.17 29.95L24.3 29.95L24.12 30.88C23.54 33.86 21.79 36.47 19.23 38.14C17.37 39.36 15.65 39.86 13.24 39.86C10.83 39.86 9.11 39.36 7.25 38.14C4.22 36.16 2.42 33.07 2.19 29.45C1.78 23.22 6.8 17.86 13.11 17.76C13.68 17.76 14.53 17.81 14.99 17.9ZM59.14 18.44C61.4 19.26 63.38 20.82 64.7 22.85C65.92 24.72 66.42 26.43 66.42 28.84C66.42 31.97 65.38 34.5 63.22 36.66C61.05 38.82 58.53 39.86 55.39 39.86C52.98 39.86 51.26 39.36 49.4 38.14C46.98 36.56 45.41 34.36 44.61 31.4C44.29 30.23 44.3 27.42 44.63 26.13C45.31 23.5 47.02 21.1 49.27 19.62C49.97 19.15 50.01 19.17 50.25 20.46L50.42 21.36L49.33 22.43C48.74 23.03 48.04 23.86 47.8 24.29C45.73 27.8 46.26 32.19 49.08 35.01C50.79 36.7 52.61 37.53 54.91 37.67C57.43 37.81 59.78 36.92 61.55 35.15C63.26 33.46 64.09 31.64 64.23 29.32C64.48 25.08 61.83 21.5 57.49 20.21L56.86 20.03L56.63 18.94L56.39 17.84L57.2 17.93C57.64 17.98 58.51 18.2 59.14 18.44ZM30.84 21.2C31.68 23.47 31.81 23.92 31.63 24.01C30.53 24.62 29.52 25.84 29.09 27.05L28.84 27.74L27.66 27.7L26.48 27.66L26.38 26.83C26.25 25.8 25.84 24.43 25.3 23.24L24.9 22.32L26.31 21.11C27.09 20.45 28.16 19.55 28.69 19.09C29.21 18.65 29.68 18.33 29.74 18.4C29.8 18.45 30.28 19.71 30.84 21.2ZM15.03 22.42C15.33 22.54 15.14 22.74 12.39 25.15C10.76 26.59 9.29 27.91 9.12 28.1C8.69 28.55 8.7 29.17 9.15 29.6L9.48 29.95L14.64 29.95L19.8 29.95L19.7 30.39C19.53 31.27 18.83 32.53 18.05 33.36C17.19 34.3 16.08 34.95 14.83 35.29C11.35 36.19 7.72 33.98 6.79 30.43C5.9 26.99 8.05 23.39 11.59 22.39C12.38 22.17 14.39 22.18 15.03 22.42ZM58.47 22.96C60.03 23.75 61.37 25.46 61.84 27.24C63.08 32 58.56 36.52 53.8 35.29C50.25 34.36 48.04 30.72 48.95 27.27C49.06 26.83 49.31 26.16 49.5 25.77C49.92 24.97 50.82 23.92 50.96 24.08C51.01 24.14 51.3 25.34 51.59 26.76C52.01 28.77 52.19 29.39 52.44 29.63C52.73 29.93 52.83 29.95 55.39 29.95C58.02 29.95 58.04 29.95 58.38 29.6C58.57 29.42 58.72 29.14 58.72 28.99C58.72 28.84 58.45 27.4 58.1 25.79C57.75 24.18 57.47 22.81 57.47 22.74C57.47 22.52 57.71 22.57 58.47 22.96ZM23.49 24.66C23.83 25.55 24.19 26.93 24.19 27.41C24.19 27.72 24.14 27.73 23.1 27.73L22 27.73L21.91 27.08C21.85 26.72 21.71 26.18 21.59 25.87L21.36 25.33L22.2 24.6C22.64 24.18 23.04 23.85 23.08 23.85C23.13 23.85 23.31 24.21 23.49 24.66ZM35.34 25.68C36.11 25.9 37.26 27.05 37.48 27.81C37.82 28.98 37.6 30.03 36.84 30.92C36.44 31.4 35.76 31.89 35.5 31.89C35.45 31.89 35.43 30.95 35.43 29.81L35.43 27.73L34.32 27.73L33.21 27.73L33.21 29.81C33.21 30.95 33.18 31.89 33.14 31.89C32.87 31.89 32.19 31.4 31.79 30.92C30.63 29.57 30.72 27.84 32.03 26.55C33 25.57 34.04 25.3 35.34 25.68ZM19.67 27.12C19.87 27.62 19.77 27.73 19.13 27.73L18.51 27.73L18.95 27.31C19.48 26.84 19.56 26.81 19.67 27.12Z" fill="#4C4C4C" fill-opacity="1.000000" fill-rule="nonzero"/>
</svg>
