<svg width="20.500000" height="19.500000" viewBox="0 0 20.5 19.5" fill="none" xmlns="http://www.w3.org/2000/svg" xmlns:xlink="http://www.w3.org/1999/xlink">
	<desc>
			Created with Pixso.
	</desc>
	<defs/>
	<path id="Vector" d="M15.75 14.75L5.25 14.75L3.25 0.75L0.75 0.75" stroke="#FFFFFF" stroke-opacity="1.000000" stroke-width="1.500000" stroke-linejoin="round" stroke-linecap="round"/>
	<path id="Vector" d="M3.53 2.75L19.75 2.75L16.75 11.75L4.82 11.75" stroke="#FFFFFF" stroke-opacity="1.000000" stroke-width="1.500000" stroke-linejoin="round" stroke-linecap="round"/>
	<path id="Vector" d="M9.75 16.75C9.75 15.64 8.85 14.75 7.75 14.75C6.64 14.75 5.75 15.64 5.75 16.75C5.75 17.85 6.64 18.75 7.75 18.75C8.85 18.75 9.75 17.85 9.75 16.75Z" stroke="#FFFFFF" stroke-opacity="1.000000" stroke-width="1.500000" stroke-linejoin="round"/>
	<path id="Vector" d="M17.75 16.75C17.75 15.64 16.85 14.75 15.75 14.75C14.64 14.75 13.75 15.64 13.75 16.75C13.75 17.85 14.64 18.75 15.75 18.75C16.85 18.75 17.75 17.85 17.75 16.75Z" stroke="#FFFFFF" stroke-opacity="1.000000" stroke-width="1.500000" stroke-linejoin="round"/>
</svg>
