<svg width="57.687500" height="68.741699" viewBox="0 0 57.6875 68.7417" fill="none" xmlns="http://www.w3.org/2000/svg" xmlns:xlink="http://www.w3.org/1999/xlink">
	<desc>
			Created with Pixso.
	</desc>
	<defs/>
	<path id="Vector" d="M17.55 0.11C16.69 0.32 15.43 1.05 14.82 1.72C14.51 2.05 14.06 2.74 13.82 3.26L13.38 4.18L13.34 7.61L13.28 11.05L12.53 11.05C11.91 11.05 11.71 11.1 11.44 11.4L11.09 11.73L11.09 21.03L11.09 30.34L11.44 30.67C11.71 30.96 11.91 31.02 12.53 31.02L13.29 31.02L13.34 35.57L13.38 40.11L13.89 41.17C14.51 42.43 15.33 43.22 16.61 43.82C17.47 44.22 17.68 44.26 19.31 44.3L21.07 44.36L21.07 45.13C21.07 46.31 21.32 46.95 22.11 47.73C22.77 48.38 23.53 48.77 24.18 48.77C24.37 48.77 24.4 48.98 24.39 50.39L24.39 52.03L23.47 52.61L22.56 53.21L18.83 53.21L15.1 53.21L14.76 53.55C14.47 53.83 14.42 54.02 14.42 54.66L14.42 55.42L7.21 55.42L0 55.42L0 56.53L0 57.64L7.21 57.64L14.42 57.64L14.42 59.86L14.42 62.08L7.21 62.08L0 62.08L0 63.19L0 64.3L7.21 64.3L14.42 64.3L14.42 65.06C14.42 65.7 14.47 65.89 14.76 66.17C15.08 66.5 15.17 66.52 16.98 66.52L18.85 66.52L18.85 67.28C18.85 67.92 18.91 68.11 19.2 68.39L19.53 68.74L23.29 68.74L27.05 68.74L27.38 68.39C27.73 68.06 27.73 68.03 27.73 65.41C27.73 62.79 27.73 62.76 27.38 62.43C27.11 62.14 26.91 62.08 26.27 62.08L25.51 62.08L25.51 61.3C25.51 60.1 25.76 59.46 26.55 58.68C27.95 57.27 29.73 57.27 31.13 58.68C31.92 59.46 32.17 60.1 32.17 61.3L32.17 62.08L31.4 62.08C30.77 62.08 30.57 62.14 30.29 62.43C29.95 62.76 29.95 62.79 29.95 65.41C29.95 68.03 29.95 68.06 30.29 68.39L30.63 68.74L34.39 68.74L38.14 68.74L38.48 68.39C38.77 68.11 38.82 67.92 38.82 67.28L38.82 66.52L40.7 66.52C42.51 66.52 42.6 66.5 42.91 66.17C43.21 65.89 43.26 65.7 43.26 65.06L43.26 64.3L50.47 64.3L57.68 64.3L57.68 63.19L57.68 62.08L50.47 62.08L43.26 62.08L43.26 59.86L43.26 57.64L50.47 57.64L57.68 57.64L57.68 56.53L57.68 55.42L50.47 55.42L43.26 55.42L43.26 54.66C43.26 54.02 43.21 53.83 42.91 53.55L42.58 53.21L38.88 53.21L35.18 53.21L34.23 52.61L33.29 52.03L33.28 50.39C33.28 48.98 33.3 48.77 33.5 48.77C34.15 48.77 34.91 48.38 35.56 47.73C36.35 46.95 36.6 46.31 36.6 45.13L36.6 44.36L38.38 44.3C40 44.26 40.21 44.22 41.07 43.82C42.35 43.22 43.16 42.43 43.79 41.17L44.3 40.11L44.34 35.57L44.38 31.02L45.15 31.02C45.77 31.02 45.96 30.96 46.24 30.67L46.59 30.34L46.59 21.03L46.59 11.73L46.24 11.4C45.96 11.1 45.77 11.05 45.15 11.05L44.4 11.05L44.34 7.61L44.3 4.17L43.79 3.12C43.16 1.86 42.36 1.08 41.07 0.47L40.14 0.02L29.12 0C22.75 -0.02 17.87 0.04 17.55 0.11ZM39.85 2.34C40.61 2.56 41.76 3.71 41.98 4.48C42.1 4.85 42.15 6.1 42.15 8.05L42.15 11.05L41.04 11.05L39.93 11.05L39.93 8.07C39.93 5.07 39.93 5.07 39.59 4.74L39.25 4.39L28.84 4.39L18.42 4.39L18.09 4.74C17.75 5.07 17.75 5.07 17.75 8.07L17.75 11.05L16.64 11.05L15.53 11.05L15.53 8.05C15.53 6.1 15.58 4.85 15.69 4.48C15.9 3.77 17.07 2.58 17.75 2.35C18.47 2.13 39.07 2.12 39.85 2.34ZM37.71 8.96L37.71 11.3L37.3 11.47C36.72 11.7 35.86 12.71 35.66 13.38C35.43 14.14 35.43 27.93 35.66 28.69C35.86 29.35 36.72 30.37 37.3 30.6L37.71 30.77L37.71 33.11L37.71 35.46L28.84 35.46L19.96 35.46L19.96 33.11L19.96 30.77L20.38 30.6C20.96 30.37 21.82 29.35 22.02 28.69C22.25 27.93 22.25 14.14 22.02 13.38C21.82 12.71 20.96 11.7 20.38 11.47L19.96 11.3L19.96 8.96L19.96 6.61L28.84 6.61L37.71 6.61L37.71 8.96ZM19.62 13.61L19.96 13.95L19.96 21.03L19.96 28.12L19.62 28.45C19.28 28.8 19.28 28.8 16.29 28.8L13.31 28.8L13.31 21.03L13.31 13.27L16.29 13.27C19.28 13.27 19.28 13.27 19.62 13.61ZM44.37 21.03L44.37 28.8L41.39 28.8C38.39 28.8 38.39 28.8 38.06 28.45L37.71 28.12L37.71 21.03L37.71 13.95L38.06 13.61C38.39 13.27 38.39 13.27 41.39 13.27L44.37 13.27L44.37 21.03ZM17.75 34C17.75 36.99 17.75 36.99 18.09 37.33L18.42 37.67L28.84 37.67L39.25 37.67L39.59 37.33C39.93 36.99 39.93 36.99 39.93 34L39.93 31.02L41.04 31.02L42.15 31.02L42.15 35.12C42.15 37.95 42.1 39.42 41.98 39.81C41.76 40.57 40.61 41.72 39.85 41.95C39.03 42.18 18.65 42.18 17.83 41.95C17.07 41.72 15.91 40.57 15.69 39.81C15.58 39.42 15.53 37.95 15.53 35.12L15.53 31.02L16.64 31.02L17.75 31.02L17.75 34ZM34.39 45.09C34.39 45.73 34.33 45.93 34.04 46.2L33.71 46.55L28.84 46.55L23.97 46.55L23.64 46.2C23.35 45.93 23.29 45.73 23.29 45.09L23.29 44.33L28.84 44.33L34.39 44.33L34.39 45.09ZM31.06 50L31.06 51.25L30.54 51.15C30.25 51.1 29.49 51.06 28.84 51.06C28.19 51.06 27.42 51.1 27.15 51.15L26.62 51.25L26.62 50L26.62 48.77L28.84 48.77L31.06 48.77L31.06 50ZM30.31 53.36C32.56 53.76 34.76 55.45 35.77 57.56C36.49 59.09 36.6 59.82 36.6 63.43L36.6 66.52L34.39 66.52L32.17 66.52L32.17 65.41L32.17 64.3L32.93 64.3C33.58 64.3 33.76 64.24 34.07 63.94C34.41 63.59 34.41 63.58 34.36 61.62C34.32 59.76 34.29 59.6 33.87 58.72C33.26 57.43 32.49 56.63 31.22 56.01C30.23 55.52 30.1 55.49 28.84 55.49C27.58 55.49 27.45 55.52 26.45 56.01C25.19 56.63 24.41 57.43 23.81 58.72C23.39 59.6 23.36 59.76 23.32 61.62C23.26 63.58 23.26 63.59 23.61 63.94C23.92 64.24 24.1 64.3 24.75 64.3L25.51 64.3L25.51 65.41L25.51 66.52L23.29 66.52L21.07 66.52L21.07 63.43C21.07 61.72 21.14 59.96 21.23 59.5C21.54 57.74 22.67 55.97 24.14 54.84C25.95 53.46 28.08 52.96 30.31 53.36ZM19.95 56.49C19.12 58.16 18.97 58.9 18.9 61.78L18.83 64.3L17.73 64.3L16.64 64.3L16.64 59.86L16.64 55.42L18.56 55.42L20.49 55.42L19.95 56.49ZM41.04 59.86L41.04 64.3L39.95 64.3L38.85 64.3L38.78 61.78C38.71 58.92 38.57 58.2 37.73 56.49L37.2 55.42L39.11 55.42L41.04 55.42L41.04 59.86Z" fill="#4C4C4C" fill-opacity="1.000000" fill-rule="nonzero"/>
</svg>
