<svg width="32.000000" height="32.000000" viewBox="0 0 32 32" fill="none" xmlns="http://www.w3.org/2000/svg" xmlns:xlink="http://www.w3.org/1999/xlink">
	<desc>
			Created with Pixso.
	</desc>
	<defs>
		<clipPath id="clip1922_250">
			<rect id="calendar" rx="0.000000" width="31.000000" height="31.000000" transform="translate(0.500000 0.500000)" fill="white" fill-opacity="0"/>
		</clipPath>
	</defs>
	<rect id="calendar" rx="0.000000" width="31.000000" height="31.000000" transform="translate(0.500000 0.500000)" fill="#FFFFFF" fill-opacity="0"/>
	<g clip-path="url(#clip1922_250)">
		<path id="Vector" d="M5.33 14.66L26.66 14.66" stroke="#F57520" stroke-opacity="1.000000" stroke-width="1.500000" stroke-linejoin="round" stroke-linecap="round"/>
		<path id="Vector" d="M5.33 25.33C5.33 26.8 6.52 28 8 28L24 28C25.47 28 26.66 26.8 26.66 25.33L26.66 14.66L26.66 9.33C26.66 7.86 25.47 6.66 24 6.66L8 6.66C6.52 6.66 5.33 7.86 5.33 9.33L5.33 25.33Z" stroke="#F57520" stroke-opacity="1.000000" stroke-width="1.500000" stroke-linejoin="round"/>
		<path id="Vector" d="M20 4L20 9.33" stroke="#F57520" stroke-opacity="1.000000" stroke-width="1.500000" stroke-linejoin="round" stroke-linecap="round"/>
		<path id="Vector" d="M12 4L12 9.33" stroke="#F57520" stroke-opacity="1.000000" stroke-width="1.500000" stroke-linejoin="round" stroke-linecap="round"/>
	</g>
</svg>
