<svg width="68.781250" height="68.781250" viewBox="0 0 68.7812 68.7812" fill="none" xmlns="http://www.w3.org/2000/svg" xmlns:xlink="http://www.w3.org/1999/xlink">
	<desc>
			Created with Pixso.
	</desc>
	<defs/>
	<path id="Vector" d="M30.29 0.34C29.99 0.63 29.95 0.8 29.95 1.58C29.95 2.41 29.92 2.49 29.64 2.55C29.46 2.59 28.67 2.75 27.87 2.91C27.06 3.07 26.27 3.24 26.09 3.28C25.84 3.34 25.75 3.27 25.57 2.82C25.25 2.05 24.98 1.8 24.46 1.8C23.79 1.8 18.17 4.2 17.79 4.65C17.43 5.06 17.38 5.46 17.68 5.96C17.79 6.15 17.87 6.4 17.88 6.53C17.88 6.69 15.51 8.45 14.93 8.7C14.87 8.73 14.58 8.54 14.28 8.26C13.28 7.36 13.2 7.4 10.3 10.3C7.4 13.2 7.36 13.28 8.26 14.28C8.54 14.58 8.73 14.87 8.7 14.93C8.45 15.51 6.69 17.88 6.53 17.88C6.4 17.87 6.15 17.79 5.96 17.68C5.46 17.38 5.06 17.43 4.65 17.77C4.24 18.15 1.8 23.76 1.8 24.33C1.8 24.91 2.05 25.23 2.73 25.52C3.27 25.75 3.34 25.84 3.27 26.11C3.23 26.27 3.06 27.06 2.91 27.87C2.74 28.67 2.59 29.46 2.55 29.63C2.49 29.92 2.41 29.95 1.58 29.95C0.8 29.95 0.63 29.99 0.34 30.29L0 30.63L0 34.39L0 38.14L0.34 38.48C0.63 38.78 0.8 38.82 1.58 38.82C2.41 38.82 2.49 38.85 2.55 39.13C2.59 39.31 2.74 40.1 2.91 40.9C3.06 41.71 3.23 42.5 3.27 42.68C3.34 42.94 3.27 43.02 2.82 43.21C2.05 43.52 1.8 43.79 1.8 44.31C1.8 44.98 4.2 50.6 4.65 50.98C5.06 51.35 5.46 51.39 5.96 51.1C6.15 50.98 6.4 50.9 6.53 50.89C6.69 50.89 8.45 53.26 8.7 53.84C8.73 53.9 8.54 54.19 8.26 54.49C7.36 55.49 7.4 55.57 10.3 58.47C13.2 61.37 13.28 61.41 14.28 60.51C14.58 60.23 14.87 60.04 14.93 60.07C15.51 60.32 17.88 62.08 17.88 62.25C17.87 62.37 17.79 62.62 17.68 62.81C17.38 63.31 17.43 63.71 17.79 64.12C18.17 64.57 23.79 66.97 24.46 66.97C24.98 66.97 25.25 66.72 25.57 65.95C25.75 65.5 25.84 65.43 26.09 65.49C26.27 65.53 27.06 65.7 27.87 65.85C28.67 66.02 29.46 66.18 29.64 66.22C29.92 66.28 29.95 66.36 29.95 67.2C29.95 67.97 29.99 68.14 30.29 68.43L30.63 68.78L34.39 68.78L38.14 68.78L38.48 68.43C38.78 68.14 38.82 67.97 38.82 67.2C38.82 66.36 38.85 66.28 39.14 66.22C39.31 66.18 40.07 66.03 40.85 65.88C41.61 65.73 42.4 65.56 42.61 65.52C42.94 65.42 43.01 65.48 43.21 65.95C43.52 66.74 43.79 66.97 44.33 66.97C44.99 66.97 50.58 64.57 51 64.12C51.35 63.71 51.39 63.31 51.1 62.81C50.98 62.62 50.9 62.37 50.89 62.25C50.89 62.08 53.26 60.32 53.84 60.07C53.9 60.04 54.19 60.23 54.49 60.51C55.49 61.41 55.57 61.37 58.47 58.47C61.37 55.57 61.41 55.49 60.51 54.49C60.23 54.19 60.04 53.9 60.07 53.84C60.32 53.26 62.08 50.89 62.25 50.89C62.37 50.9 62.62 50.98 62.81 51.1C63.31 51.39 63.71 51.35 64.12 51C64.57 50.58 66.97 44.99 66.97 44.33C66.97 43.79 66.74 43.52 65.95 43.21C65.5 43.02 65.43 42.94 65.5 42.68C65.55 42.5 65.71 41.71 65.86 40.9C66.03 40.1 66.18 39.31 66.22 39.13C66.28 38.85 66.36 38.82 67.2 38.82C67.97 38.82 68.14 38.78 68.43 38.48L68.78 38.14L68.78 34.39L68.78 30.63L68.43 30.29C68.14 29.99 67.97 29.95 67.2 29.95C66.36 29.95 66.28 29.92 66.22 29.63C66.18 29.46 66.03 28.67 65.86 27.87C65.71 27.06 65.55 26.27 65.5 26.11C65.43 25.84 65.5 25.75 66.04 25.52C66.72 25.23 66.97 24.91 66.97 24.35C66.97 23.78 64.52 18.13 64.12 17.77C63.71 17.43 63.31 17.38 62.81 17.68C62.62 17.79 62.37 17.87 62.25 17.88C62.08 17.88 60.32 15.51 60.07 14.93C60.04 14.87 60.23 14.58 60.51 14.28C61.41 13.28 61.37 13.2 58.47 10.3C55.57 7.4 55.49 7.36 54.49 8.26C54.19 8.54 53.9 8.73 53.84 8.7C53.26 8.45 50.89 6.69 50.89 6.53C50.9 6.4 50.98 6.15 51.1 5.96C51.39 5.46 51.35 5.06 51 4.65C50.6 4.2 44.98 1.8 44.31 1.8C43.79 1.8 43.52 2.05 43.21 2.82C43.01 3.3 42.94 3.35 42.61 3.25C42.4 3.21 41.61 3.05 40.85 2.89C40.07 2.74 39.31 2.59 39.14 2.55C38.85 2.49 38.82 2.41 38.82 1.58C38.82 0.8 38.78 0.63 38.48 0.34L38.14 0L34.39 0L30.63 0L30.29 0.34ZM36.6 2.99C36.6 4.32 36.77 4.46 38.8 4.77C39.56 4.89 41 5.18 41.98 5.42C43.73 5.86 43.8 5.86 44.16 5.62C44.37 5.49 44.63 5.15 44.74 4.88C44.86 4.6 44.97 4.35 44.98 4.34C45.02 4.29 48.57 5.81 48.66 5.9C48.7 5.93 48.61 6.18 48.49 6.44C48.02 7.41 48.27 7.83 49.88 8.76C50.47 9.11 51.55 9.84 52.27 10.38C53.83 11.55 54.2 11.62 54.98 10.92L55.48 10.49L56.88 11.89L58.28 13.29L57.85 13.79C57.16 14.57 57.23 14.96 58.38 16.48C58.9 17.19 59.64 18.27 60 18.88C60.66 20.02 61.15 20.52 61.57 20.52C61.7 20.52 62.04 20.42 62.33 20.3C62.61 20.19 62.87 20.1 62.88 20.13C63.05 20.3 64.46 23.78 64.38 23.81C63.85 23.99 63.27 24.4 63.09 24.71C62.91 25.04 62.91 25.16 63.13 25.95C63.41 26.95 64.01 29.82 64.13 30.84C64.27 31.83 64.66 32.17 65.73 32.17L66.56 32.17L66.56 34.39L66.56 36.6L65.73 36.6C64.66 36.6 64.27 36.94 64.13 37.94C64.01 38.95 63.41 41.82 63.13 42.82C62.91 43.61 62.91 43.73 63.09 44.06C63.27 44.37 63.85 44.79 64.38 44.97C64.46 44.99 63.05 48.47 62.88 48.64C62.87 48.67 62.61 48.59 62.33 48.47C62.04 48.35 61.7 48.25 61.57 48.25C61.15 48.25 60.66 48.75 60 49.89C59.64 50.5 58.9 51.58 58.38 52.29C57.23 53.81 57.16 54.2 57.85 54.98L58.28 55.48L56.88 56.88L55.48 58.28L54.98 57.85C54.2 57.16 53.83 57.24 52.29 58.38C51.58 58.9 50.5 59.64 49.89 60C48.27 60.96 48.02 61.36 48.49 62.33C48.61 62.59 48.7 62.84 48.66 62.87C48.49 63.05 44.99 64.46 44.97 64.38C44.79 63.85 44.37 63.27 44.06 63.09C43.73 62.91 43.61 62.91 42.82 63.13C41.82 63.41 38.95 64.01 37.94 64.13C36.94 64.27 36.6 64.66 36.6 65.73L36.6 66.56L34.39 66.56L32.17 66.56L32.17 65.73C32.17 64.66 31.83 64.27 30.84 64.13C29.62 63.96 28.66 63.78 26.8 63.34C25.04 62.91 24.97 62.91 24.61 63.15C24.4 63.29 24.14 63.62 24.03 63.89C23.92 64.17 23.81 64.42 23.79 64.44C23.75 64.48 20.2 62.97 20.12 62.87C20.07 62.84 20.16 62.59 20.28 62.33C20.75 61.36 20.5 60.96 18.88 60C18.27 59.64 17.19 58.9 16.48 58.38C14.96 57.23 14.57 57.16 13.79 57.85L13.29 58.28L11.89 56.88L10.49 55.48L10.92 54.98C11.62 54.2 11.55 53.81 10.4 52.29C9.87 51.58 9.13 50.5 8.77 49.89C7.82 48.27 7.41 48.02 6.44 48.49C6.18 48.61 5.93 48.7 5.9 48.66C5.81 48.57 4.29 45.02 4.34 44.98C4.35 44.97 4.6 44.86 4.88 44.74C5.15 44.63 5.49 44.37 5.62 44.16C5.86 43.8 5.86 43.73 5.42 41.98C5.18 41 4.89 39.56 4.77 38.8C4.46 36.77 4.32 36.6 2.99 36.6L2.21 36.6L2.21 34.39L2.21 32.17L3.05 32.17C4.11 32.17 4.5 31.83 4.64 30.84C4.77 29.85 5.35 26.98 5.64 25.95C5.86 25.16 5.86 25.04 5.68 24.71C5.5 24.4 4.92 23.99 4.39 23.81C4.31 23.78 5.72 20.28 5.9 20.12C5.93 20.07 6.18 20.16 6.44 20.28C7.41 20.75 7.82 20.5 8.77 18.88C9.13 18.27 9.87 17.19 10.4 16.48C11.53 14.94 11.62 14.57 10.92 13.79L10.49 13.29L11.89 11.89L13.29 10.49L13.79 10.92C14.57 11.62 14.96 11.55 16.46 10.42C17.15 9.91 18.13 9.24 18.65 8.94C19.81 8.26 20.52 7.61 20.52 7.22C20.52 7.07 20.41 6.72 20.28 6.44C20.16 6.18 20.07 5.93 20.12 5.9C20.28 5.72 23.78 4.31 23.81 4.39C23.99 4.92 24.4 5.5 24.71 5.68C25.04 5.86 25.16 5.86 25.95 5.64C26.95 5.36 29.82 4.77 30.84 4.64C31.83 4.5 32.17 4.11 32.17 3.05L32.17 2.21L34.39 2.21L36.6 2.21L36.6 2.99Z" fill="#4C4C4C" fill-opacity="1.000000" fill-rule="nonzero"/>
	<path id="Vector" d="M33.28 9.05C32.6 9.27 31.43 10.46 31.22 11.17C30.84 12.48 31.11 13.52 32.1 14.49C32.8 15.21 33.51 15.53 34.39 15.53C35.26 15.53 35.97 15.21 36.67 14.49C38.03 13.14 38.07 11.41 36.78 9.98C35.88 8.98 34.59 8.63 33.28 9.05ZM35.15 11.44C35.37 11.64 35.5 11.93 35.5 12.2C35.5 12.46 35.37 12.75 35.15 12.96C34.47 13.65 33.28 13.17 33.28 12.2C33.28 11.63 33.82 11.09 34.39 11.09C34.65 11.09 34.94 11.21 35.15 11.44Z" fill="#4C4C4C" fill-opacity="1.000000" fill-rule="nonzero"/>
	<path id="Vector" d="M25.79 10.38C12.79 15.05 5.81 29.41 10.17 42.43C11.12 45.2 11.82 46.45 12.49 46.45C12.81 46.45 26.4 41.26 26.86 40.96C27.45 40.58 27.41 40.17 26.63 38.64C25.84 37.09 25.51 35.83 25.51 34.39C25.51 30.6 28.03 27.13 31.7 25.94C32.57 25.65 33 25.26 33 24.75C33 24.46 29.03 11.37 28.69 10.49C28.35 9.69 27.78 9.66 25.79 10.38ZM28.69 17.99C29.64 21.1 30.43 23.71 30.46 23.79C30.5 23.89 30.06 24.18 29.49 24.46C24.25 26.97 21.95 33.18 24.18 38.73L24.51 39.53L24.22 39.67C24.05 39.74 21.49 40.72 18.54 41.86L13.14 43.93L12.81 43.16C12.63 42.75 12.28 41.78 12.06 41C8.68 29.41 14.61 17.25 25.86 12.7C26.31 12.52 26.76 12.35 26.83 12.35C26.91 12.35 27.74 14.89 28.69 17.99Z" fill="#4C4C4C" fill-opacity="1.000000" fill-rule="nonzero"/>
	<path id="Vector" d="M40.47 9.98C40.35 10.05 40.18 10.28 40.08 10.49C39.75 11.34 35.77 24.46 35.77 24.73C35.77 25.23 36.16 25.62 36.92 25.86C39.27 26.63 41.28 28.33 42.28 30.39C43.64 33.19 43.59 35.79 42.14 38.63C41.36 40.15 41.32 40.58 41.92 40.96C42.33 41.22 55.95 46.45 56.23 46.45C56.73 46.45 57.04 46.09 57.61 44.88C61.48 36.63 60.33 26.37 54.69 18.97C53.73 17.72 51.54 15.47 50.33 14.5C48.1 12.7 45.48 11.24 42.87 10.34C41.4 9.83 40.86 9.74 40.47 9.98ZM43.23 12.84C46.06 13.99 48.61 15.72 50.89 18.02C54.52 21.68 56.79 26.34 57.47 31.45C57.81 33.98 57.71 36.48 57.18 39.17C56.95 40.31 56.14 42.9 55.8 43.55L55.62 43.93L50.24 41.86C47.28 40.72 44.72 39.74 44.55 39.67L44.26 39.53L44.59 38.73C46.82 33.18 44.55 27.05 39.29 24.44C38.73 24.17 38.28 23.87 38.31 23.79C38.34 23.71 39.13 21.1 40.08 17.99C41.03 14.89 41.86 12.34 41.92 12.34C41.98 12.34 42.57 12.56 43.23 12.84Z" fill="#4C4C4C" fill-opacity="1.000000" fill-rule="nonzero"/>
	<path id="Vector" d="M32.74 27.95C29.23 28.89 27.05 32.54 27.94 35.98C28.87 39.53 32.5 41.74 35.98 40.83C39.53 39.91 41.73 36.27 40.83 32.82C39.9 29.23 36.22 27.01 32.74 27.95ZM36.48 30.52C37.41 31.02 37.84 31.46 38.38 32.5C38.68 33.1 38.74 33.39 38.74 34.39C38.75 35.47 38.71 35.63 38.28 36.44C37.75 37.41 37.31 37.83 36.27 38.38C35.67 38.68 35.38 38.74 34.39 38.74C33.39 38.74 33.1 38.68 32.5 38.38C31.46 37.83 31.02 37.41 30.49 36.44C30.06 35.63 30.02 35.47 30.03 34.39C30.03 33 30.36 32.17 31.27 31.27C32.65 29.88 34.72 29.59 36.48 30.52Z" fill="#4C4C4C" fill-opacity="1.000000" fill-rule="nonzero"/>
	<path id="Vector" d="M28.02 41.69C27.83 41.86 26.81 44.31 25.03 48.97C23.54 52.84 22.32 56.1 22.32 56.23C22.32 56.73 22.68 57.04 23.89 57.61C30.34 60.64 38.5 60.64 44.87 57.63C46.09 57.04 46.45 56.73 46.45 56.23C46.45 56.1 45.23 52.84 43.75 48.97C41.96 44.31 40.94 41.86 40.75 41.69C40.32 41.35 40.02 41.4 38.91 42C37.35 42.86 36.11 43.18 34.39 43.18C32.67 43.18 31.42 42.86 29.87 42C28.76 41.4 28.45 41.35 28.02 41.69ZM33.05 45.35C34.76 45.58 36.54 45.37 38.16 44.79C38.8 44.55 39.36 44.36 39.43 44.33C39.5 44.31 40.54 46.85 41.74 49.96L43.93 55.62L43.55 55.8C42.16 56.5 39.1 57.29 36.67 57.56C33.18 57.93 28.55 57.27 25.61 55.96L24.85 55.63L26.91 50.24C28.05 47.28 29.03 44.72 29.1 44.56L29.24 44.26L30.48 44.73C31.25 45.02 32.22 45.26 33.05 45.35Z" fill="#4C4C4C" fill-opacity="1.000000" fill-rule="nonzero"/>
	<path id="Vector" d="M16.64 47.88C15.96 48.1 14.79 49.29 14.58 50C14.2 51.3 14.47 52.34 15.46 53.31C16.86 54.73 18.63 54.73 20.03 53.31C21.39 51.97 21.43 50.24 20.14 48.81C19.24 47.81 17.95 47.46 16.64 47.88ZM18.51 50.26C19.2 50.94 18.72 52.14 17.75 52.14C17.48 52.14 17.19 52.01 16.98 51.79C16.76 51.58 16.64 51.29 16.64 51.03C16.64 50.76 16.76 50.47 16.98 50.26C17.19 50.04 17.48 49.92 17.75 49.92C18.01 49.92 18.3 50.04 18.51 50.26Z" fill="#4C4C4C" fill-opacity="1.000000" fill-rule="nonzero"/>
	<path id="Vector" d="M49.92 47.88C49.24 48.1 48.07 49.29 47.86 50C47.48 51.3 47.75 52.34 48.74 53.31C50.14 54.73 51.91 54.73 53.31 53.31C54.67 51.97 54.71 50.24 53.43 48.81C52.52 47.81 51.23 47.46 49.92 47.88ZM51.79 50.26C52.48 50.94 52 52.14 51.03 52.14C50.46 52.14 49.92 51.6 49.92 51.03C49.92 50.46 50.46 49.92 51.03 49.92C51.29 49.92 51.58 50.04 51.79 50.26Z" fill="#4C4C4C" fill-opacity="1.000000" fill-rule="nonzero"/>
</svg>
