<svg width="40.000000" height="40.000000" viewBox="0 0 40 40" fill="none" xmlns="http://www.w3.org/2000/svg" xmlns:xlink="http://www.w3.org/1999/xlink">
	<desc>
			Created with Pixso.
	</desc>
	<defs>
		<clipPath id="clip1948_124">
			<rect id="free-icon-24-hours-3871048 (1)" rx="0.000000" width="39.000000" height="39.000000" transform="translate(0.500000 0.500000)" fill="white" fill-opacity="0"/>
		</clipPath>
	</defs>
	<rect id="free-icon-24-hours-3871048 (1)" rx="0.000000" width="39.000000" height="39.000000" transform="translate(0.500000 0.500000)" fill="#FFFFFF" fill-opacity="0"/>
	<g clip-path="url(#clip1948_124)">
		<path id="Vector" d="M18.59 0.04C18.44 0.06 17.98 0.11 17.57 0.16C15.14 0.43 12.35 1.33 10.22 2.53C8.55 3.48 7.2 4.5 5.85 5.85C2.66 9.04 0.67 13.12 0.11 17.57C-0.04 18.84 -0.04 21.23 0.11 22.5C0.54 25.96 2 29.54 4.11 32.28C4.67 33 5.24 33.19 5.9 32.89C6.39 32.67 6.6 32.32 6.6 31.74C6.6 31.32 6.57 31.22 6.34 30.92C4.3 28.2 3.15 25.53 2.68 22.42C2.52 21.33 2.5 19.05 2.64 17.96C3.75 9.72 10.17 3.47 18.36 2.65C18.85 2.6 19.34 2.57 19.43 2.59C19.57 2.6 19.32 2.85 18.18 3.86C17.29 4.65 16.73 5.21 16.67 5.36C16.2 6.46 17.28 7.55 18.38 7.07C18.74 6.92 23.79 2.4 23.95 2.1C24.11 1.78 24.11 1.19 23.95 0.88C23.75 0.48 23.41 0.3 22.67 0.18C22 0.07 19.13 -0.02 18.59 0.04Z" fill="#4C4C4C" fill-opacity="1.000000" fill-rule="nonzero"/>
		<path id="Vector" d="M34.09 7.17C33.6 7.39 33.39 7.75 33.39 8.33C33.39 8.75 33.42 8.85 33.65 9.15C36.87 13.43 38.07 18.17 37.18 23.1C36.32 27.92 33.42 32.17 29.25 34.8C26.81 36.34 23.82 37.25 20.79 37.39L19.8 37.43L21.22 36.03C22 35.27 22.68 34.57 22.72 34.47C22.77 34.38 22.81 34.11 22.81 33.89C22.81 33.39 22.62 33.03 22.25 32.81C21.9 32.6 21.21 32.6 20.89 32.8C20.59 33 15.96 37.5 15.77 37.78C15.55 38.1 15.57 38.8 15.8 39.14C16.07 39.54 16.39 39.68 17.28 39.81C23.56 40.65 29.78 38.58 34.18 34.18C37.12 31.24 39.01 27.57 39.77 23.3C40 21.99 40.07 19.12 39.89 17.65C39.46 14.13 38.09 10.74 35.95 7.9C35.32 7.06 34.79 6.85 34.09 7.17Z" fill="#4C4C4C" fill-opacity="1.000000" fill-rule="nonzero"/>
		<path id="Vector" d="M12.69 11.88C11.38 11.98 10.35 12.45 9.45 13.35C8.48 14.32 8.08 15.36 8.14 16.85C8.15 17.5 8.19 17.67 8.32 17.86C8.89 18.64 9.92 18.64 10.5 17.86C10.62 17.7 10.66 17.48 10.7 16.81C10.74 16.18 10.79 15.89 10.92 15.65C11.82 13.9 15.09 14.05 15.96 15.88C16.35 16.7 16.28 17.91 15.78 18.62C15.49 19.05 14.64 19.82 13.35 20.82C10.57 23 9.39 24.2 8.47 25.82C8.17 26.35 8.12 26.5 8.12 26.88C8.12 27.39 8.32 27.75 8.75 28C9.01 28.15 9.14 28.16 13.43 28.18C16.5 28.2 17.97 28.18 18.25 28.12C19.19 27.92 19.58 26.87 19 26.1C18.64 25.61 18.69 25.62 15.1 25.62L11.84 25.62L12.38 25.07C12.68 24.76 13.7 23.89 14.64 23.14C18.12 20.36 18.75 19.43 18.77 17.07C18.78 15.49 18.38 14.47 17.34 13.42C16.21 12.28 14.57 11.73 12.69 11.88Z" fill="#4C4C4C" fill-opacity="1.000000" fill-rule="nonzero"/>
		<path id="Vector" d="M28.22 11.87C28.09 11.9 27.89 12 27.78 12.07C27.5 12.28 19.14 22.48 19.04 22.72C18.92 23.03 19.01 23.72 19.19 23.96C19.28 24.08 19.46 24.25 19.61 24.33C19.87 24.48 20.04 24.49 23.57 24.51L27.26 24.53L27.26 25.83C27.26 27.32 27.35 27.66 27.86 27.97C28.24 28.21 28.86 28.21 29.24 27.97C29.75 27.66 29.84 27.32 29.84 25.84L29.84 24.55L30.42 24.5C31.1 24.46 31.43 24.3 31.69 23.9C31.92 23.56 31.94 22.88 31.71 22.51C31.46 22.09 31.14 21.95 30.45 21.95L29.84 21.95L29.84 17.4C29.84 12.96 29.84 12.85 29.67 12.53C29.42 12 28.82 11.73 28.22 11.87ZM27.24 21.92C27.22 21.94 26.26 21.94 25.1 21.93L23 21.91L25.11 19.35L27.22 16.78L27.25 19.34C27.25 20.75 27.25 21.91 27.24 21.92Z" fill="#4C4C4C" fill-opacity="1.000000" fill-rule="nonzero"/>
	</g>
</svg>
