<svg width="32.000000" height="32.000000" viewBox="0 0 32 32" fill="none" xmlns="http://www.w3.org/2000/svg" xmlns:xlink="http://www.w3.org/1999/xlink">
	<desc>
			Created with Pixso.
	</desc>
	<defs>
		<clipPath id="clip1922_256">
			<rect id="mail" rx="0.000000" width="31.000000" height="31.000000" transform="translate(0.500000 0.500000)" fill="white" fill-opacity="0"/>
		</clipPath>
	</defs>
	<rect id="mail" rx="0.000000" width="31.000000" height="31.000000" transform="translate(0.500000 0.500000)" fill="#FFFFFF" fill-opacity="0"/>
	<g clip-path="url(#clip1922_256)">
		<path id="Vector" d="M5.33 6.66C4.96 6.66 4.63 6.81 4.39 7.05C4.14 7.29 4 7.63 4 8L4 24C4 24.73 4.59 25.33 5.33 25.33L26.66 25.33C27.4 25.33 28 24.73 28 24L28 8C28 7.63 27.85 7.29 27.6 7.05C27.36 6.81 27.03 6.66 26.66 6.66L5.33 6.66Z" stroke="#F57520" stroke-opacity="1.000000" stroke-width="1.500000" stroke-linejoin="round"/>
		<path id="Vector" d="M4.39 7.05L14.11 16.78C15.15 17.82 16.84 17.82 17.88 16.78L27.6 7.05" stroke="#F57520" stroke-opacity="1.000000" stroke-width="1.500000" stroke-linejoin="round" stroke-linecap="round"/>
	</g>
</svg>
