 <svg width="39.977539" height="32.964844" viewBox="0 0 39.9775 32.9648" fill="none" xmlns="http://www.w3.org/2000/svg" xmlns:xlink="http://www.w3.org/1999/xlink">
	<desc>
			Created with Pixso.
	</desc>
	<defs/>
	<path id="Vector" d="M7.15 0.17C6.79 0.39 6.98 0.1 3.19 6.21C0.04 11.27 0.03 11.28 0 11.75C-0.02 12.14 0.01 12.28 0.16 12.5C0.26 12.66 4.58 17.29 9.77 22.79C16.5 29.93 19.27 32.82 19.44 32.88C19.77 32.99 20.2 32.99 20.52 32.88C20.69 32.82 23.47 29.93 30.2 22.79C35.39 17.29 39.71 12.66 39.81 12.5C39.96 12.28 39.98 12.14 39.97 11.75C39.94 11.28 39.93 11.26 37.1 6.71C32.91 -0.01 33.16 0.37 32.81 0.17L32.5 0L19.98 0L7.44 0L7.15 0.17ZM12.48 2.75C12.48 2.8 12.13 4.55 11.72 6.64L10.95 10.42L7.34 10.45L3.73 10.46L4.11 9.86C4.32 9.53 5.41 7.77 6.54 5.95L8.59 2.65L10.54 2.65C12.05 2.65 12.48 2.67 12.48 2.75ZM24.7 2.78C24.77 3.02 26.31 10.28 26.31 10.37C26.31 10.44 24.73 10.46 20.02 10.46C16.56 10.46 13.73 10.44 13.73 10.4C13.73 10.37 14.07 8.61 14.49 6.5L15.26 2.65L19.96 2.65C24.37 2.65 24.66 2.66 24.7 2.78ZM33.8 6.53L36.21 10.42L32.69 10.45C30.76 10.46 29.16 10.45 29.14 10.42C29.09 10.38 27.49 2.99 27.48 2.78C27.48 2.66 27.62 2.65 29.43 2.65L31.37 2.65L33.8 6.53ZM13.62 19.37L16.08 25.5L15.62 25.03C15.17 24.57 5.05 13.82 4.68 13.41L4.48 13.2L7.83 13.21L11.17 13.24L13.62 19.37ZM25.89 13.33C25.48 14.44 20.02 27.89 19.99 27.89C19.96 27.89 18.62 24.58 17 20.54L14.06 13.2L20 13.2C25.62 13.2 25.94 13.21 25.89 13.33ZM35.29 13.41C34.9 13.85 24.79 24.58 24.38 25L23.96 25.42L24.12 25C24.46 24.13 28.82 13.32 28.86 13.26C28.88 13.23 30.38 13.2 32.19 13.2L35.48 13.2L35.29 13.41Z" fill="#4C4C4C" fill-opacity="1.000000" fill-rule="nonzero"/>
</svg>
