<svg width="40.000000" height="40.000000" viewBox="0 0 40 40" fill="none" xmlns="http://www.w3.org/2000/svg" xmlns:xlink="http://www.w3.org/1999/xlink">
	<desc>
			Created with Pixso.
	</desc>
	<defs>
		<clipPath id="clip1949_137">
			<rect id="free-icon-sticker-7494382_1" rx="0.000000" width="39.000000" height="39.000000" transform="translate(0.500000 0.500000)" fill="white" fill-opacity="0"/>
		</clipPath>
	</defs>
	<rect id="free-icon-sticker-7494382_1" rx="0.000000" width="39.000000" height="39.000000" transform="translate(0.500000 0.500000)" fill="#FFFFFF" fill-opacity="0"/>
	<g clip-path="url(#clip1949_137)">
		<path id="Vector" d="M18.69 0.11C17.16 0.39 16.06 0.97 14.62 2.26C13.6 3.18 12.41 3.66 11.12 3.67C10.09 3.67 8.7 4 7.81 4.45C6.46 5.13 5.12 6.46 4.45 7.81C4 8.7 3.67 10.09 3.67 11.12C3.66 12.29 3.25 13.45 2.5 14.33C1.36 15.68 1.12 16.02 0.77 16.75C0.19 17.94 0.04 18.63 0.04 20C0.04 21.33 0.19 22.03 0.72 23.16C1.09 23.94 1.48 24.5 2.2 25.29C3.21 26.4 3.57 27.27 3.67 28.89C3.76 30.41 4.02 31.39 4.57 32.41C5.28 33.68 6.52 34.89 7.81 35.54C8.69 36 10.09 36.32 11.12 36.32C12.41 36.33 13.63 36.82 14.63 37.73C15.43 38.46 15.96 38.84 16.6 39.17C18.07 39.92 19.67 40.16 21.27 39.88C22.8 39.61 23.96 39.01 25.28 37.81C26.4 36.78 27.25 36.42 28.92 36.32C31.22 36.17 32.79 35.5 34.17 34.04C35.59 32.57 36.17 31.16 36.32 28.93C36.42 27.25 36.77 26.42 37.85 25.22C38.85 24.12 39.41 23.13 39.75 21.88C39.92 21.24 39.94 20.96 39.94 20C39.94 19.03 39.92 18.75 39.75 18.11C39.39 16.82 38.83 15.84 37.73 14.63C36.82 13.63 36.33 12.41 36.32 11.12C36.32 9.98 35.96 8.57 35.42 7.59C34.61 6.11 33.08 4.75 31.64 4.21C30.82 3.89 30.03 3.74 28.92 3.67C27.25 3.57 26.4 3.21 25.28 2.18C24.31 1.29 23.51 0.79 22.51 0.43C21.34 0.02 19.89 -0.11 18.69 0.11ZM21.05 2.46C21.86 2.63 22.75 3.09 23.46 3.71C24.42 4.57 24.9 4.9 25.66 5.27C26.58 5.72 27.45 5.92 28.74 6.01C29.32 6.05 29.98 6.14 30.19 6.19C31.85 6.64 33.2 7.93 33.71 9.56C33.85 10.02 33.93 10.47 33.98 11.25C34.07 12.58 34.27 13.42 34.76 14.41C35.16 15.21 35.35 15.48 36.28 16.53C38.1 18.62 38.1 21.35 36.27 23.46C35.34 24.53 35.16 24.78 34.76 25.58C34.27 26.57 34.07 27.41 33.98 28.74C33.85 30.82 33.14 32.15 31.64 33.14C30.82 33.67 30.05 33.89 28.74 33.98C27.41 34.07 26.57 34.27 25.58 34.76C24.78 35.16 24.51 35.35 23.46 36.28C21.38 38.1 18.61 38.1 16.53 36.28C15.48 35.35 15.21 35.16 14.41 34.76C13.42 34.27 12.58 34.07 11.25 33.98C10.47 33.93 10.02 33.85 9.56 33.71C7.93 33.2 6.64 31.85 6.19 30.19C6.14 29.98 6.05 29.32 6.01 28.74C5.92 27.41 5.71 26.57 5.23 25.58C4.83 24.78 4.64 24.51 3.71 23.46C1.89 21.38 1.89 18.62 3.71 16.53C4.6 15.52 4.91 15.07 5.27 14.33C5.72 13.4 5.92 12.54 6.01 11.25C6.11 9.75 6.32 9.09 6.98 8.17C7.96 6.78 9.25 6.14 11.25 6.01C13.47 5.87 14.64 5.36 16.53 3.71C17.85 2.56 19.44 2.12 21.05 2.46Z" fill="#4C4C4C" fill-opacity="1.000000" fill-rule="nonzero"/>
		<path id="Vector" d="M18.86 8.25C15.17 8.69 12.13 10.53 10.16 13.52C9.29 14.82 8.67 16.35 8.39 17.92C8.18 19 8.18 20.99 8.39 22.07C9.29 26.95 13.04 30.7 17.92 31.6C19 31.81 20.99 31.81 22.07 31.6C26.95 30.7 30.7 26.95 31.6 22.07C31.81 20.99 31.81 19 31.6 17.92C30.66 12.85 26.64 9 21.56 8.32C20.81 8.21 19.45 8.18 18.86 8.25ZM21.4 10.65C24.41 11.11 27.05 13.03 28.41 15.74C29.16 17.22 29.4 18.29 29.4 20C29.4 21.31 29.28 22.07 28.92 23.08C27.78 26.28 25.19 28.54 21.85 29.26C20.95 29.46 19.03 29.46 18.12 29.26C15.84 28.77 13.79 27.46 12.38 25.58C11.57 24.51 10.87 22.81 10.66 21.42C9.96 16.84 12.65 12.5 17.11 11C18.42 10.57 19.97 10.44 21.4 10.65Z" fill="#4C4C4C" fill-opacity="1.000000" fill-rule="nonzero"/>
		<path id="Vector" d="M21.4 18.78L18.32 21.87L16.87 20.42L15.42 18.98L14.6 19.8L13.78 20.62L16.07 22.91L18.35 25.19L22.26 21.28C24.41 19.14 26.17 17.34 26.17 17.3C26.17 17.2 24.67 15.7 24.57 15.7C24.52 15.7 23.1 17.09 21.4 18.78Z" fill="#4C4C4C" fill-opacity="1.000000" fill-rule="nonzero"/>
	</g>
</svg>

