<svg width="85.733887" height="47.150391" viewBox="0 0 85.7339 47.1504" fill="none" xmlns="http://www.w3.org/2000/svg" xmlns:xlink="http://www.w3.org/1999/xlink">
	<desc>
			Created with Pixso.
	</desc>
	<defs>
		<clipPath id="clip1919_175">
			<rect id="Ресурс 2 1" rx="0.000000" width="12.984450" height="26.324635" transform="translate(72.659248 -0.786065)" fill="white" fill-opacity="0"/>
		</clipPath>
		<clipPath id="clip1919_179">
			<rect id="Ресурс 2 2" rx="0.000000" width="13.873795" height="28.103327" transform="translate(71.770088 18.957098)" fill="white" fill-opacity="0"/>
		</clipPath>
	</defs>
	<path id="Vector" d="M19.97 20.71C17.83 20.71 16.1 18.94 16.1 16.75C16.1 14.56 17.83 12.78 19.97 12.78C22.11 12.78 23.84 14.56 23.84 16.75C23.84 18.94 22.11 20.71 19.97 20.71Z" stroke="#FFFFFF" stroke-opacity="1.000000" stroke-width="0.731399"/>
	<path id="Vector" d="M23.06 8.65C20.93 8.65 19.2 6.88 19.2 4.69C19.2 2.5 20.93 0.72 23.06 0.72C25.2 0.72 26.93 2.5 26.93 4.69C26.93 6.88 25.2 8.65 23.06 8.65Z" stroke="#FFFFFF" stroke-opacity="1.000000" stroke-width="0.731399"/>
	<path id="Vector" d="M23.22 5.12C23.25 5.12 23.28 5.11 23.3 5.1C23.33 5.08 23.36 5.06 23.37 5.04C23.75 4.51 23.27 4.36 23.27 4.36L15.79 4.95C15.76 4.96 15.72 4.96 15.69 4.94C15.65 4.93 15.62 4.91 15.6 4.88C15.58 4.86 15.56 4.82 15.55 4.79C15.54 4.75 15.54 4.72 15.55 4.68C15.68 4.06 15.91 3.46 16.23 2.91C16.27 2.84 16.32 2.78 16.39 2.74C16.46 2.7 16.54 2.68 16.62 2.68C16.7 2.68 16.78 2.7 16.85 2.74C16.92 2.78 16.97 2.84 17.01 2.91L17.01 3.52C17.01 3.57 17.02 3.61 17.04 3.64C17.08 3.71 17.14 3.76 17.2 3.8C17.23 3.82 17.27 3.82 17.31 3.82C17.34 3.82 17.38 3.82 17.41 3.8C17.44 3.78 17.47 3.76 17.49 3.73C17.51 3.7 17.52 3.66 17.52 3.63C17.58 3.14 17.6 2.05 16.58 2C15.2 1.94 14.84 4.54 14.76 5.5C14.75 5.54 14.76 5.59 14.77 5.63C14.79 5.67 14.81 5.71 14.84 5.75C14.87 5.78 14.91 5.8 14.96 5.82C15 5.84 15.04 5.85 15.09 5.84L16.21 5.84C16.24 5.85 16.27 5.85 16.3 5.86C16.33 5.88 16.35 5.9 16.37 5.92C16.39 5.94 16.41 5.97 16.42 6C16.43 6.03 16.43 6.06 16.43 6.09L15.9 11.73C15.9 11.78 15.88 11.83 15.84 11.87C15.8 11.91 15.75 11.93 15.7 11.93L14.13 12.02C14.09 12.02 14.06 12.02 14.03 12.01C14 11.99 13.97 11.97 13.95 11.95C13.93 11.92 13.91 11.89 13.9 11.86C13.89 11.83 13.89 11.79 13.9 11.76C13.95 11.49 13.98 11.22 14 10.94C14 10.66 13.75 10.56 13.62 10.48C13.61 10.47 13.59 10.46 13.57 10.46C13.55 10.46 13.52 10.46 13.51 10.47C13.49 10.48 13.47 10.49 13.46 10.51C13.44 10.52 13.43 10.54 13.43 10.56L12.81 13.53C12.8 13.57 12.8 13.61 12.81 13.64C12.82 13.67 12.84 13.71 12.86 13.73C12.93 13.81 13.03 13.85 13.14 13.86C13.19 13.87 13.24 13.85 13.28 13.83C13.32 13.8 13.35 13.76 13.37 13.71L13.62 12.98C13.64 12.94 13.66 12.91 13.69 12.88C13.73 12.85 13.77 12.84 13.81 12.83L15.67 12.65C15.71 12.64 15.74 12.65 15.78 12.66C15.81 12.67 15.84 12.69 15.86 12.72L19.86 17.11C19.88 17.13 19.9 17.15 19.93 17.16C19.96 17.17 19.99 17.18 20.02 17.18L20.17 17.18C20.22 17.18 20.26 17.16 20.3 17.14C20.34 17.11 20.37 17.07 20.38 17.03L22.28 11.41C22.29 11.37 22.29 11.33 22.29 11.29C22.28 11.26 22.26 11.22 22.24 11.19L17.85 5.93C17.83 5.91 17.82 5.88 17.81 5.85C17.8 5.82 17.8 5.79 17.8 5.76L17.8 5.71C17.81 5.66 17.83 5.61 17.87 5.58C17.9 5.54 17.95 5.52 18 5.52L23.22 5.12ZM21.24 12.4L20.02 15.74C20.01 15.77 19.99 15.81 19.96 15.83C19.93 15.85 19.9 15.87 19.86 15.88C19.82 15.89 19.78 15.88 19.75 15.87C19.71 15.86 19.68 15.84 19.65 15.81L16.95 12.89C16.93 12.86 16.91 12.82 16.9 12.78C16.89 12.74 16.9 12.7 16.91 12.66C16.92 12.63 16.95 12.59 16.98 12.57C17.01 12.54 17.04 12.52 17.08 12.52L20.98 11.89C21.02 11.89 21.05 11.89 21.08 11.9C21.1 11.91 21.13 11.92 21.15 11.94C21.18 11.96 21.2 11.99 21.21 12.02C21.22 12.04 21.23 12.08 21.23 12.11L21.23 12.32C21.24 12.34 21.24 12.37 21.24 12.4ZM20.86 11.06L16.88 11.69C16.84 11.69 16.81 11.69 16.78 11.67C16.75 11.66 16.72 11.65 16.7 11.62C16.67 11.6 16.66 11.57 16.64 11.54C16.63 11.51 16.63 11.48 16.63 11.44L17.12 6.81C17.13 6.77 17.15 6.74 17.17 6.71C17.2 6.68 17.23 6.65 17.27 6.64C17.31 6.63 17.35 6.63 17.39 6.64C17.43 6.65 17.46 6.67 17.49 6.69L20.99 10.69C21.02 10.72 21.04 10.76 21.04 10.8C21.05 10.84 21.05 10.88 21.03 10.91C21.02 10.95 21 10.98 20.97 11.01C20.94 11.03 20.9 11.05 20.86 11.06Z" fill="#FFFFFF" fill-opacity="1.000000" fill-rule="nonzero"/>
	<path id="Vector" d="M23.3 5.1C23.33 5.08 23.36 5.06 23.37 5.04C23.75 4.51 23.27 4.36 23.27 4.36L15.79 4.95C15.76 4.96 15.72 4.96 15.69 4.94C15.65 4.93 15.62 4.91 15.6 4.88C15.58 4.86 15.56 4.82 15.55 4.79C15.54 4.75 15.54 4.72 15.55 4.68C15.68 4.06 15.91 3.46 16.23 2.91C16.27 2.84 16.32 2.78 16.39 2.74C16.46 2.7 16.54 2.68 16.62 2.68C16.7 2.68 16.78 2.7 16.85 2.74C16.92 2.78 16.97 2.84 17.01 2.91L17.01 3.52C17.01 3.57 17.02 3.61 17.04 3.64C17.08 3.71 17.14 3.76 17.2 3.8C17.23 3.82 17.27 3.82 17.31 3.82C17.34 3.82 17.38 3.82 17.41 3.8C17.44 3.78 17.47 3.76 17.49 3.73C17.51 3.7 17.52 3.66 17.52 3.63C17.58 3.14 17.6 2.05 16.58 2C15.2 1.94 14.84 4.54 14.76 5.5C14.75 5.54 14.76 5.59 14.77 5.63C14.79 5.67 14.81 5.71 14.84 5.75C14.87 5.78 14.91 5.8 14.96 5.82C15 5.84 15.04 5.85 15.09 5.84L16.21 5.84C16.24 5.85 16.27 5.85 16.3 5.86C16.33 5.88 16.35 5.9 16.37 5.92C16.39 5.94 16.41 5.97 16.42 6C16.43 6.03 16.43 6.06 16.43 6.09L15.9 11.73C15.9 11.78 15.88 11.83 15.84 11.87C15.8 11.91 15.75 11.93 15.7 11.93L14.13 12.02C14.09 12.02 14.06 12.02 14.03 12.01C14 11.99 13.97 11.97 13.95 11.95C13.93 11.92 13.91 11.89 13.9 11.86C13.89 11.83 13.89 11.79 13.9 11.76C13.95 11.49 13.98 11.22 14 10.94C14 10.66 13.75 10.56 13.62 10.48C13.61 10.47 13.59 10.46 13.57 10.46C13.55 10.46 13.52 10.46 13.51 10.47C13.49 10.48 13.47 10.49 13.46 10.51C13.44 10.52 13.43 10.54 13.43 10.56L12.81 13.53C12.8 13.57 12.8 13.61 12.81 13.64C12.82 13.67 12.84 13.71 12.86 13.73C12.93 13.81 13.03 13.85 13.14 13.86C13.19 13.87 13.24 13.85 13.28 13.83C13.32 13.8 13.35 13.76 13.37 13.71L13.62 12.98C13.64 12.94 13.66 12.91 13.69 12.88C13.73 12.85 13.77 12.84 13.81 12.83L15.67 12.65C15.71 12.64 15.74 12.65 15.78 12.66C15.81 12.67 15.84 12.69 15.86 12.72L19.86 17.11C19.88 17.13 19.9 17.15 19.93 17.16C19.96 17.17 19.99 17.18 20.02 17.18L20.17 17.18C20.22 17.18 20.26 17.16 20.3 17.14C20.34 17.11 20.37 17.07 20.38 17.03L22.28 11.41C22.29 11.37 22.29 11.33 22.29 11.29C22.28 11.26 22.26 11.22 22.24 11.19L17.85 5.93C17.83 5.91 17.82 5.88 17.81 5.85C17.8 5.82 17.8 5.79 17.8 5.76L17.8 5.71C17.81 5.66 17.83 5.61 17.87 5.58C17.9 5.54 17.95 5.52 18 5.52L23.22 5.12C23.25 5.12 23.28 5.11 23.3 5.1ZM20.02 15.74C20.01 15.77 19.99 15.81 19.96 15.83C19.93 15.85 19.9 15.87 19.86 15.88C19.82 15.89 19.78 15.88 19.75 15.87C19.71 15.86 19.68 15.84 19.65 15.81L16.95 12.89C16.93 12.86 16.91 12.82 16.9 12.78C16.89 12.74 16.9 12.7 16.91 12.66C16.92 12.63 16.95 12.59 16.98 12.57C17.01 12.54 17.04 12.52 17.08 12.52L20.98 11.89C21.02 11.89 21.05 11.89 21.08 11.9C21.1 11.91 21.13 11.92 21.15 11.94C21.18 11.96 21.2 11.99 21.21 12.02C21.22 12.04 21.23 12.08 21.23 12.11L21.23 12.32C21.24 12.34 21.24 12.37 21.24 12.4L20.02 15.74ZM16.88 11.69C16.84 11.69 16.81 11.69 16.78 11.67C16.75 11.66 16.72 11.65 16.7 11.62C16.67 11.6 16.66 11.57 16.64 11.54C16.63 11.51 16.63 11.48 16.63 11.44L17.12 6.81C17.13 6.77 17.15 6.74 17.17 6.71C17.2 6.68 17.23 6.65 17.27 6.64C17.31 6.63 17.35 6.63 17.39 6.64C17.43 6.65 17.46 6.67 17.49 6.69L20.99 10.69C21.02 10.72 21.04 10.76 21.04 10.8C21.05 10.84 21.05 10.88 21.03 10.91C21.02 10.95 21 10.98 20.97 11.01C20.94 11.03 20.9 11.05 20.86 11.06L16.88 11.69Z" stroke="#FFFFFF" stroke-opacity="1.000000" stroke-width="0.243800"/>
	<path id="Vector" d="M64.74 39.68L66.42 35.21L62.61 32.43L67.48 32.43L69.04 28L70.31 32.51L74.98 32.51L71.04 35.13L72.23 39.68L68.79 37.1L64.74 39.68Z" fill="#F57520" fill-opacity="1.000000" fill-rule="nonzero"/>
	<path id="Vector" d="M44.64 47.15L49.53 47.15L63.14 0.01L58.25 0.01L44.64 47.15Z" fill="#FFFFFF" fill-opacity="1.000000" fill-rule="nonzero"/>
	<path id="Union" d="M53.3608 42.4355L51.8491 47.1494L71.4146 47.1494C73.0435 47.1494 74.4707 46.8975 75.7212 46.4609C77.9536 45.7988 80.0015 44.5996 81.6665 42.9023C84.2578 40.2617 85.7168 36.7129 85.7329 33.0107C85.7158 29.2852 84.2383 25.7158 81.6177 23.0703C81.4009 22.8516 81.1777 22.6553 80.9487 22.4805C81.2886 22.2393 81.6143 21.9639 81.9248 21.6475C84.3516 19.1719 85.7183 15.8467 85.7339 12.377C85.7178 8.88672 84.3794 5.42773 81.9248 2.94922C80.4102 1.41992 78.5454 0.677734 76.5205 0.322266C76.3184 0.264648 76.1001 0.220703 75.8613 0.192383C74.1416 -0.0146484 73.5928 -0.0078125 72.4443 0.00585938C72.1079 0.00976562 71.7202 0.0146484 71.2368 0.0146484L65.1895 0.0146484L64.2109 4.19434L72.6118 4.19434C74.8638 4.21289 77.0073 4.45996 78.5938 6.06152C80.1802 7.66406 81.042 10.1211 81.042 12.377C81.0415 14.6191 80.1626 16.7715 78.5938 18.3701C77.7114 19.2686 76.6509 19.9531 75.4937 20.3857C74.7778 20.5791 73.9727 20.6182 72.7485 20.6475C70.4204 20.7021 69.647 20.6885 68.6196 20.6709C67.9985 20.6602 67.2847 20.6475 66.0786 20.6475L59.3198 20.6475L57.9858 24.916L71.7227 24.916L71.7227 24.916C71.8281 24.917 71.9336 24.918 72.0386 24.9189C72.3638 24.9209 72.6855 24.9229 73.0034 24.9297C73.6919 24.9531 74.396 25.0088 75.0947 25.1025C76.2002 25.2979 77.2144 25.708 78.0806 26.583C79.7739 28.292 80.7246 30.6025 80.7246 33.0107C80.7241 35.4023 79.7856 37.6992 78.1104 39.4053C76.4976 41.0488 74.4087 42.2998 72.1221 42.4268C71.708 42.4375 71.2769 42.4365 70.8242 42.4365C70.7256 42.4365 70.626 42.4355 70.5254 42.4355L53.3608 42.4355Z" clip-rule="evenodd" fill="#FFFFFF" fill-opacity="1.000000" fill-rule="evenodd"/>
	<path id="Vector" d="M0 0.01L4.8 0.01L16.27 39.76L14.49 47.14L0 0.01Z" fill="#FFFFFF" fill-opacity="1.000000" fill-rule="nonzero"/>
	<path id="Vector" d="M16.36 47.14L21.07 47.14L31.03 8.55L42.42 47.14L44.73 39.58L32.81 0.01L28.37 0.01L16.36 47.14Z" fill="#FFFFFF" fill-opacity="1.000000" fill-rule="nonzero"/>
</svg>
