<svg width="68.717285" height="53.212402" viewBox="0 0 68.7173 53.2124" fill="none" xmlns="http://www.w3.org/2000/svg" xmlns:xlink="http://www.w3.org/1999/xlink">
	<desc>
			Created with Pixso.
	</desc>
	<defs/>
	<path id="Vector" d="M6.92 0.19C4.49 0.72 2.12 2.58 0.98 4.84C-0.78 8.36 -0.14 12.34 2.63 15.11C4.16 16.64 5.83 17.43 8.19 17.72C11.63 18.14 14.6 19.95 16.25 22.69C16.83 23.64 17.64 25.92 17.64 26.61C17.64 27.3 16.87 29.45 16.26 30.49C15.6 31.64 13.89 33.35 12.74 34.02C11.55 34.71 9.69 35.32 8.19 35.5C5.83 35.79 4.16 36.58 2.63 38.11C-0.85 41.59 -0.89 47.11 2.55 50.53C4.25 52.22 6.07 53.05 8.37 53.19C10.88 53.33 13.23 52.44 15.03 50.67C16.62 49.1 17.41 47.42 17.72 45.03C18.14 41.59 19.95 38.62 22.68 36.97C23.78 36.3 25.78 35.65 27.27 35.47C27.94 35.39 28.84 35.21 29.27 35.07C31.92 34.25 34.25 31.91 35.11 29.18C35.54 27.8 35.54 25.42 35.11 24.04C34.68 22.69 33.9 21.42 32.85 20.37C31.31 18.84 29.58 18.03 27.27 17.75C25.78 17.57 23.78 16.92 22.68 16.25C20.95 15.21 19.26 13.26 18.57 11.49C18.16 10.51 17.73 8.9 17.73 8.37C17.72 7.47 17.29 5.96 16.73 4.84C14.93 1.27 10.88 -0.65 6.92 0.19ZM10.45 2.41C13.03 3.09 15.03 5.28 15.39 7.85C16.08 12.76 18.14 16.17 21.6 18.16C22.06 18.43 22.45 18.66 22.45 18.71C22.45 18.75 22.17 18.96 21.82 19.16C20.87 19.77 19.94 20.67 19.33 21.6C19.02 22.06 18.75 22.44 18.7 22.44C18.66 22.44 18.43 22.06 18.16 21.6C16.17 18.14 12.75 16.08 7.85 15.39C5.28 15.03 3.09 13.03 2.41 10.45C1.18 5.71 5.71 1.18 10.45 2.41ZM28.2 20.16C31.75 21.09 33.96 24.72 33.06 28.2C32.38 30.78 30.19 32.78 27.62 33.14C25.68 33.42 23.77 33.95 22.49 34.58C18.44 36.58 16.14 40.08 15.39 45.37C15.03 47.94 13.03 50.13 10.45 50.81C5.71 52.04 1.18 47.51 2.41 42.77C3.09 40.19 5.28 38.19 7.85 37.83C13.14 37.08 16.64 34.78 18.63 30.73C19.27 29.45 19.8 27.54 20.08 25.6C20.6 21.81 24.5 19.2 28.2 20.16Z" fill="#4C4C4C" fill-opacity="1.000000" fill-rule="nonzero"/>
	<path id="Vector" d="M7.82 4.55C6.54 4.88 5.42 5.8 4.84 6.99C4.57 7.56 4.5 7.9 4.5 8.86C4.49 9.94 4.53 10.11 4.96 10.91C5.49 11.88 5.93 12.3 6.97 12.85C7.57 13.16 7.86 13.21 8.86 13.21C9.86 13.21 10.15 13.16 10.74 12.85C11.78 12.3 12.23 11.88 12.75 10.91C13.18 10.11 13.23 9.94 13.21 8.86C13.21 7.86 13.16 7.57 12.85 6.97C12.31 5.93 11.88 5.49 10.95 4.99C10.05 4.52 8.68 4.31 7.82 4.55ZM9.73 6.84C11.16 7.43 11.51 9.29 10.4 10.4C8.84 11.97 6.29 10.57 6.7 8.37C6.94 7.07 8.47 6.29 9.73 6.84Z" fill="#4C4C4C" fill-opacity="1.000000" fill-rule="nonzero"/>
	<path id="Vector" d="M25.57 22.3C24.29 22.63 23.17 23.55 22.59 24.74C22.32 25.31 22.25 25.65 22.25 26.61C22.24 27.69 22.28 27.86 22.71 28.66C23.24 29.63 23.68 30.05 24.72 30.6C25.32 30.91 25.61 30.96 26.61 30.96C27.61 30.96 27.9 30.91 28.49 30.6C29.53 30.05 29.98 29.63 30.5 28.66C30.93 27.86 30.98 27.69 30.96 26.61C30.96 25.61 30.91 25.32 30.6 24.72C30.06 23.68 29.63 23.24 28.7 22.74C27.8 22.27 26.43 22.06 25.57 22.3ZM27.48 24.59C28.91 25.18 29.26 27.04 28.15 28.15C27.25 29.05 25.97 29.05 25.07 28.15C23.35 26.44 25.25 23.64 27.48 24.59Z" fill="#4C4C4C" fill-opacity="1.000000" fill-rule="nonzero"/>
	<path id="Vector" d="M7.82 40.05C6.54 40.38 5.42 41.3 4.84 42.49C4.57 43.06 4.5 43.4 4.5 44.36C4.49 45.44 4.53 45.61 4.96 46.41C5.49 47.38 5.93 47.8 6.97 48.35C7.57 48.66 7.86 48.71 8.86 48.71C9.86 48.71 10.15 48.66 10.74 48.35C11.78 47.8 12.23 47.38 12.75 46.41C13.18 45.61 13.23 45.44 13.21 44.36C13.21 43.36 13.16 43.07 12.85 42.47C12.31 41.43 11.88 40.99 10.95 40.49C10.05 40.02 8.68 39.81 7.82 40.05ZM9.73 42.34C11.16 42.93 11.51 44.79 10.4 45.9C9.5 46.8 8.22 46.8 7.32 45.9C5.6 44.19 7.5 41.39 9.73 42.34Z" fill="#4C4C4C" fill-opacity="1.000000" fill-rule="nonzero"/>
	<path id="Vector" d="M40.2 0.19C37.77 0.72 35.4 2.58 34.26 4.84C32.5 8.36 33.14 12.34 35.91 15.11C37.44 16.64 39.12 17.43 41.47 17.72C44.91 18.14 47.88 19.95 49.53 22.69C50.11 23.64 50.92 25.92 50.92 26.61C50.92 27.3 50.15 29.45 49.54 30.49C48.88 31.64 47.17 33.35 46.02 34.02C44.83 34.71 42.97 35.32 41.47 35.5C39.12 35.79 37.44 36.58 35.91 38.11C32.43 41.59 32.39 47.11 35.83 50.53C37.54 52.22 39.35 53.05 41.65 53.19C44.16 53.33 46.51 52.44 48.31 50.67C49.91 49.1 50.7 47.42 51 45.03C51.42 41.59 53.23 38.62 55.96 36.97C57.06 36.3 59.06 35.65 60.56 35.47C61.22 35.39 62.12 35.21 62.55 35.07C65.2 34.25 67.53 31.91 68.39 29.18C68.82 27.8 68.82 25.42 68.39 24.04C67.96 22.69 67.18 21.42 66.13 20.37C64.59 18.84 62.86 18.03 60.56 17.75C59.06 17.57 57.06 16.92 55.96 16.25C54.23 15.21 52.54 13.26 51.85 11.49C51.44 10.51 51.01 8.9 51.01 8.37C51 7.47 50.57 5.96 50.02 4.84C48.21 1.27 44.16 -0.65 40.2 0.19ZM43.73 2.41C46.31 3.09 48.31 5.28 48.67 7.85C49.36 12.76 51.42 16.17 54.88 18.16C55.34 18.43 55.73 18.66 55.73 18.71C55.73 18.75 55.45 18.96 55.11 19.16C54.15 19.77 53.22 20.67 52.61 21.6C52.3 22.06 52.03 22.44 51.99 22.44C51.94 22.44 51.71 22.06 51.44 21.6C49.45 18.14 46.04 16.08 41.13 15.39C38.56 15.03 36.37 13.03 35.69 10.45C34.46 5.71 38.99 1.18 43.73 2.41ZM61.48 20.16C65.03 21.09 67.24 24.72 66.34 28.2C65.66 30.78 63.47 32.78 60.9 33.14C58.96 33.42 57.05 33.95 55.77 34.58C51.72 36.58 49.42 40.08 48.67 45.37C48.31 47.94 46.31 50.13 43.73 50.81C38.99 52.04 34.46 47.51 35.69 42.77C36.37 40.19 38.56 38.19 41.13 37.83C46.42 37.08 49.92 34.78 51.92 30.73C52.55 29.45 53.08 27.54 53.36 25.6C53.88 21.81 57.78 19.2 61.48 20.16Z" fill="#4C4C4C" fill-opacity="1.000000" fill-rule="nonzero"/>
	<path id="Vector" d="M41.1 4.55C39.82 4.88 38.7 5.8 38.12 6.99C37.85 7.56 37.79 7.9 37.79 8.86C37.77 9.94 37.81 10.11 38.24 10.91C38.77 11.88 39.21 12.3 40.25 12.85C40.85 13.16 41.14 13.21 42.14 13.21C43.14 13.21 43.43 13.16 44.03 12.85C45.07 12.3 45.51 11.88 46.04 10.91C46.47 10.11 46.51 9.94 46.49 8.86C46.49 7.86 46.44 7.57 46.13 6.97C45.59 5.93 45.16 5.49 44.23 4.99C43.33 4.52 41.96 4.31 41.1 4.55ZM43.01 6.84C44.44 7.43 44.79 9.29 43.68 10.4C42.13 11.97 39.57 10.57 39.98 8.37C40.23 7.07 41.75 6.29 43.01 6.84Z" fill="#4C4C4C" fill-opacity="1.000000" fill-rule="nonzero"/>
	<path id="Vector" d="M58.85 22.3C57.57 22.63 56.45 23.55 55.87 24.74C55.6 25.31 55.54 25.65 55.54 26.61C55.52 27.69 55.56 27.86 55.99 28.66C56.52 29.63 56.96 30.05 58 30.6C58.6 30.91 58.89 30.96 59.89 30.96C60.89 30.96 61.18 30.91 61.78 30.6C62.82 30.05 63.26 29.63 63.79 28.66C64.22 27.86 64.26 27.69 64.24 26.61C64.24 25.61 64.19 25.32 63.88 24.72C63.34 23.68 62.91 23.24 61.98 22.74C61.08 22.27 59.71 22.06 58.85 22.3ZM60.76 24.59C62.19 25.18 62.54 27.04 61.43 28.15C60.53 29.05 59.25 29.05 58.35 28.15C56.63 26.44 58.53 23.64 60.76 24.59Z" fill="#4C4C4C" fill-opacity="1.000000" fill-rule="nonzero"/>
	<path id="Vector" d="M41.1 40.05C39.82 40.38 38.7 41.3 38.12 42.49C37.85 43.06 37.79 43.4 37.79 44.36C37.77 45.44 37.81 45.61 38.24 46.41C38.77 47.38 39.21 47.8 40.25 48.35C40.85 48.66 41.14 48.71 42.14 48.71C43.14 48.71 43.43 48.66 44.03 48.35C45.07 47.8 45.51 47.38 46.04 46.41C46.47 45.61 46.51 45.44 46.49 44.36C46.49 43.36 46.44 43.07 46.13 42.47C45.59 41.43 45.16 40.99 44.23 40.49C43.33 40.02 41.96 39.81 41.1 40.05ZM43.01 42.34C44.44 42.93 44.79 44.79 43.68 45.9C42.78 46.8 41.5 46.8 40.6 45.9C38.88 44.19 40.78 41.39 43.01 42.34Z" fill="#4C4C4C" fill-opacity="1.000000" fill-rule="nonzero"/>
</svg>
