<svg width="40.000000" height="40.000000" viewBox="0 0 40 40" fill="none" xmlns="http://www.w3.org/2000/svg" xmlns:xlink="http://www.w3.org/1999/xlink">
	<desc>
			Created with Pixso.
	</desc>
	<defs>
		<clipPath id="clip1949_145">
			<rect id="free-icon-settings-cog-70314 1" rx="0.000000" width="39.000000" height="39.000000" transform="translate(0.500000 0.500000)" fill="white" fill-opacity="0"/>
		</clipPath>
	</defs>
	<rect id="free-icon-settings-cog-70314 1" rx="0.000000" width="39.000000" height="39.000000" transform="translate(0.500000 0.500000)" fill="#FFFFFF" fill-opacity="0"/>
	<g clip-path="url(#clip1949_145)">
		<path id="Vector" d="M17.73 0.11C16.68 0.25 16.53 0.29 16.17 0.55C15.77 0.84 15.67 1.05 15 2.92C14.7 3.78 14.44 4.48 14.43 4.49C14.42 4.5 14.08 4.63 13.68 4.79L12.96 5.09L12.16 4.72C9.56 3.5 9.67 3.55 9.17 3.56C8.6 3.56 8.38 3.67 7.42 4.43C6.47 5.19 5.19 6.47 4.43 7.42C3.74 8.29 3.6 8.55 3.53 9.05C3.49 9.48 3.65 9.92 4.57 11.84L5.1 12.95L4.79 13.67C4.63 14.08 4.5 14.42 4.49 14.43C4.48 14.44 3.78 14.7 2.92 15C2.07 15.3 1.25 15.62 1.08 15.7C0.77 15.86 0.45 16.22 0.32 16.58C0.02 17.36 -0.1 20.54 0.11 22.24C0.25 23.29 0.31 23.51 0.59 23.89C0.85 24.22 1.13 24.35 2.94 25C3.78 25.29 4.48 25.55 4.49 25.56C4.5 25.57 4.6 25.82 4.71 26.13C4.84 26.42 4.96 26.76 5.01 26.87C5.08 27.04 5 27.27 4.39 28.55C4 29.36 3.64 30.17 3.59 30.34C3.48 30.69 3.53 31.21 3.71 31.58C4.28 32.67 6.96 35.38 8.36 36.26C8.66 36.45 9.29 36.52 9.65 36.4C9.82 36.35 10.63 35.99 11.44 35.6C12.72 35 12.95 34.91 13.12 34.98C13.23 35.03 13.57 35.15 13.86 35.28C14.17 35.39 14.42 35.5 14.43 35.5C14.44 35.51 14.7 36.21 15 37.05C15.64 38.86 15.77 39.14 16.1 39.4C16.48 39.68 16.67 39.74 17.71 39.88C19.37 40.1 22.61 39.98 23.42 39.67C23.77 39.54 24.13 39.22 24.29 38.91C24.37 38.75 24.69 37.92 24.99 37.07C25.29 36.21 25.55 35.51 25.56 35.5C25.57 35.5 25.83 35.39 26.13 35.28C26.43 35.15 26.76 35.03 26.87 34.98C27.04 34.91 27.27 35 28.55 35.6C29.37 35.99 30.17 36.35 30.34 36.4C30.7 36.52 31.33 36.45 31.63 36.26C33.03 35.38 35.71 32.67 36.28 31.58C36.46 31.21 36.51 30.69 36.4 30.34C36.35 30.17 35.99 29.36 35.6 28.55C35 27.27 34.91 27.04 34.98 26.87C35.03 26.76 35.15 26.42 35.28 26.13C35.39 25.82 35.5 25.57 35.5 25.56C35.51 25.55 36.21 25.29 37.05 25C38.86 24.35 39.14 24.22 39.4 23.89C39.68 23.51 39.75 23.29 39.88 22.24C40.03 21.02 40.03 18.96 39.88 17.74C39.65 15.92 39.64 15.91 36.75 14.89L35.5 14.44L35.27 13.85C35.14 13.52 35 13.17 34.97 13.09C34.92 12.96 35.07 12.58 35.6 11.44C35.99 10.62 36.35 9.82 36.4 9.65C36.51 9.3 36.46 8.78 36.28 8.41C35.86 7.6 33.9 5.5 32.57 4.43C31.61 3.67 31.39 3.56 30.82 3.56C30.32 3.55 30.43 3.5 27.83 4.72L27.03 5.09L26.31 4.79C25.91 4.63 25.57 4.5 25.56 4.49C25.55 4.48 25.29 3.78 24.99 2.92C24.69 2.07 24.37 1.25 24.29 1.08C24.13 0.77 23.77 0.45 23.42 0.32C22.64 0.03 19.32 -0.1 17.73 0.11ZM20.97 3.51L21.46 3.51L22.03 5.13C22.76 7.18 22.83 7.28 24.1 7.73C24.57 7.89 25.31 8.2 25.74 8.4C26.42 8.73 26.58 8.78 27.03 8.78C27.5 8.78 27.62 8.74 29.04 8.06L30.56 7.34L31.1 7.82C31.39 8.08 31.87 8.55 32.14 8.86L32.65 9.43L31.93 10.94C31.25 12.37 31.21 12.49 31.21 12.96C31.21 13.41 31.26 13.57 31.6 14.29C31.82 14.75 32.12 15.46 32.27 15.89C32.49 16.53 32.6 16.74 32.89 17.03C33.21 17.36 33.35 17.42 34.86 17.96L36.48 18.53L36.5 19.13C36.51 19.71 36.48 21.42 36.45 21.46C36.44 21.46 35.7 21.74 34.79 22.06C32.8 22.78 32.69 22.86 32.26 24.1C32.11 24.53 31.82 25.25 31.6 25.7C31.26 26.42 31.21 26.58 31.21 27.03C31.21 27.5 31.25 27.62 31.93 29.05L32.66 30.57L32.44 30.81C31.9 31.41 31.41 31.91 31 32.27L30.56 32.65L29.05 31.93C27.61 31.25 27.51 31.21 27.03 31.21C26.58 31.22 26.42 31.27 25.7 31.6C25.25 31.82 24.53 32.12 24.1 32.27C23.46 32.49 23.25 32.6 22.96 32.89C22.63 33.21 22.57 33.35 22.03 34.85L21.46 36.46L20.73 36.5C20.32 36.52 19.67 36.52 19.26 36.5L18.53 36.46L17.96 34.85C17.42 33.35 17.36 33.21 17.03 32.89C16.74 32.6 16.53 32.49 15.89 32.27C15.46 32.12 14.75 31.82 14.29 31.6C13.57 31.26 13.42 31.21 12.96 31.21C12.49 31.21 12.37 31.26 10.94 31.93L9.43 32.65L8.99 32.27C8.58 31.91 8.09 31.41 7.55 30.81L7.33 30.57L8.06 29.05C8.74 27.62 8.78 27.5 8.78 27.03C8.78 26.58 8.73 26.42 8.39 25.7C8.17 25.25 7.88 24.53 7.73 24.1C7.3 22.86 7.19 22.78 5.2 22.06C4.29 21.74 3.55 21.46 3.54 21.46C3.51 21.42 3.48 19.71 3.5 19.13L3.51 18.53L5.14 17.96C6.64 17.42 6.78 17.36 7.1 17.03C7.39 16.74 7.5 16.53 7.72 15.89C7.87 15.46 8.17 14.75 8.39 14.29C8.73 13.57 8.78 13.41 8.78 12.96C8.78 12.49 8.74 12.37 8.06 10.94L7.34 9.43L7.85 8.86C8.12 8.55 8.6 8.08 8.89 7.82L9.43 7.34L10.95 8.06C12.37 8.74 12.49 8.78 12.96 8.78C13.41 8.78 13.57 8.74 14.25 8.4C14.68 8.2 15.42 7.89 15.89 7.72C17.15 7.28 17.23 7.18 17.96 5.14L18.53 3.52L19.17 3.49C19.51 3.47 19.96 3.47 20.14 3.49C20.33 3.5 20.71 3.51 20.97 3.51Z" fill="#4C4C4C" fill-opacity="1.000000" fill-rule="nonzero"/>
		<path id="Vector" d="M18.36 11.8C15.14 12.48 12.71 15 12.14 18.25C11.54 21.68 13.31 25.17 16.43 26.71C16.87 26.93 17.57 27.2 18 27.32C18.69 27.5 18.93 27.52 20 27.52C21.06 27.52 21.3 27.5 21.99 27.32C26.89 26.01 29.38 20.57 27.12 16.05C25.5 12.79 21.92 11.06 18.36 11.8ZM21.05 15.27C22.18 15.56 23.32 16.42 23.89 17.42C25.12 19.61 24.21 22.48 21.93 23.58C18.52 25.23 14.76 22.15 15.7 18.48C15.91 17.66 16.24 17.1 16.91 16.43C17.78 15.57 18.75 15.17 19.96 15.16C20.31 15.15 20.8 15.21 21.05 15.27Z" fill="#4C4C4C" fill-opacity="1.000000" fill-rule="nonzero"/>
	</g>
</svg>
